<?xml version="1.0" standalone="no"?>
<!DOCTYPE svg PUBLIC "-//W3C//DTD SVG 20010904//EN"
 "http://www.w3.org/TR/2001/REC-SVG-20010904/DTD/svg10.dtd">
<svg version="1.0" xmlns="http://www.w3.org/2000/svg"
 width="512" height="512" viewBox="0 0 512.000000 512.000000"
 preserveAspectRatio="xMidYMid meet">

<g transform="translate(0.000000,512.000000) scale(0.100000,-0.100000)"
fill="#000000" stroke="none">
<path d="M1162 4895 c-192 -35 -372 -173 -457 -350 -69 -146 -65 0 -65 -2188
l0 -1973 26 -53 c45 -89 144 -135 237 -110 24 6 384 225 850 516 l808 505 808
-506 c531 -331 824 -509 853 -516 91 -23 189 25 232 112 l26 54 -2 2004 -3
2005 -23 65 c-86 241 -284 406 -525 439 -124 17 -2669 13 -2765 -4z m2756
-431 c49 -20 90 -60 113 -109 18 -38 19 -108 19 -1787 0 -962 -2 -1748 -5
-1748 -3 0 -310 191 -683 423 -372 233 -693 432 -712 442 -41 22 -133 24 -170
5 -14 -7 -334 -206 -711 -441 -378 -236 -690 -429 -693 -429 -3 0 -6 788 -6
1750 0 1703 1 1752 19 1788 11 20 32 49 48 64 64 61 -25 57 1421 58 1174 0
1327 -2 1360 -16z"/>
</g>
</svg>
