<?xml version="1.0"?>
<svg xmlns="http://www.w3.org/2000/svg" viewBox="0 0 192 192" width="512" height="512"><g id="_01-hat" data-name="01-hat"><path d="M149.776,40.346a56.011,56.011,0,0,0-107.552,0A48,48,0,0,0,40,135.333V184a8,8,0,0,0,8,8h96a8,8,0,0,0,8-8V135.333a48,48,0,0,0-2.224-94.987ZM56,176V160h80v16Zm88-56a8,8,0,0,0-8,8v16H120V128H104v16H88V128H72v16H56V128a8,8,0,0,0-8-8,32,32,0,0,1-.021-64l.556.016a8.045,8.045,0,0,0,8.028-6.678,39.995,39.995,0,0,1,78.874,0,8.022,8.022,0,0,0,8.028,6.678l.553-.016A32,32,0,0,1,144,120Z"/></g></svg>
