<?xml version="1.0" standalone="no"?>
<!DOCTYPE svg PUBLIC "-//W3C//DTD SVG 20010904//EN"
 "http://www.w3.org/TR/2001/REC-SVG-20010904/DTD/svg10.dtd">
<svg version="1.0" xmlns="http://www.w3.org/2000/svg"
 width="512.000000pt" height="512.000000pt" viewBox="0 0 512.000000 512.000000"
 preserveAspectRatio="xMidYMid meet">

<g transform="translate(0.000000,512.000000) scale(0.100000,-0.100000)"
fill="#000000" stroke="none">
<path d="M508 4709 l-3 -411 -49 -20 c-71 -27 -176 -98 -237 -160 -96 -95
-164 -219 -200 -358 -20 -79 -18 -287 5 -370 58 -217 214 -403 413 -492 l73
-33 0 -1432 0 -1433 255 0 255 0 0 1431 0 1430 55 24 c202 90 357 260 424 465
63 192 36 443 -66 620 -21 36 -76 104 -124 152 -75 75 -100 93 -187 135 l-101
48 -1 408 0 407 -255 0 -255 0 -2 -411z m346 -883 c107 -32 166 -118 166 -240
-1 -149 -81 -241 -222 -253 -87 -8 -143 11 -204 71 -40 39 -56 64 -68 105 -20
68 -20 94 -1 159 40 135 181 202 329 158z"/>
<path d="M2300 3558 l0 -1563 -48 -19 c-166 -67 -316 -211 -391 -378 -48 -106
-65 -190 -65 -318 0 -128 17 -212 65 -318 75 -167 225 -311 391 -378 l48 -19
0 -282 0 -283 260 0 260 0 0 283 0 283 49 18 c121 43 275 175 350 300 63 105
110 270 111 392 0 81 -28 220 -61 300 -75 179 -246 347 -411 405 l-38 13 0
1563 0 1563 -260 0 -260 0 0 -1562z m319 -2029 c123 -26 194 -117 194 -247 -1
-158 -97 -255 -251 -255 -112 1 -186 43 -228 130 -74 151 7 344 155 369 20 3
41 7 46 9 18 6 33 5 84 -6z"/>
<path d="M4098 4454 l-3 -665 -56 -23 c-242 -98 -418 -336 -448 -607 -36 -326
124 -620 416 -765 l93 -46 0 -1174 0 -1174 255 0 255 0 0 1178 0 1177 48 19
c266 109 440 358 459 656 18 301 -145 584 -413 717 l-94 46 0 664 0 663 -255
0 -255 0 -2 -666z m382 -1157 c116 -60 163 -224 98 -351 -42 -82 -116 -125
-217 -126 -91 0 -139 17 -191 70 -53 52 -70 100 -70 191 1 121 69 210 185 240
49 13 146 1 195 -24z"/>
</g>
</svg>
