<?xml version="1.0" encoding="iso-8859-1"?>
<!-- Generator: Adobe Illustrator 19.0.0, SVG Export Plug-In . SVG Version: 6.00 Build 0)  -->
<svg version="1.1" id="Capa_1" xmlns="http://www.w3.org/2000/svg" xmlns:xlink="http://www.w3.org/1999/xlink" x="0px" y="0px"
	 viewBox="0 0 512 512" style="enable-background:new 0 0 512 512;" xml:space="preserve">
<g>
	<g>
		<g>
			<path d="M110.816,372.514L5.913,477.417c-7.803,7.804-7.803,20.455,0,28.258c3.901,3.901,9.016,5.853,14.13,5.853
				c5.114,0,10.228-1.951,14.13-5.853l104.903-104.903c7.803-7.804,7.803-20.455,0-28.258
				C131.272,364.711,118.62,364.711,110.816,372.514z"/>
			<path d="M506.144,477.947L284.876,254.899l31.675-31.662c28.05,16.91,64.392,19.085,81.133,19.085
				c4.265,0,7.261-0.14,8.518-0.213c5.724-0.33,11.03-3.101,14.57-7.611l86.553-110.264c6.814-8.68,5.3-21.241-3.38-28.055
				c-8.681-6.815-21.242-5.301-28.056,3.38l-80.665,102.763c-12.813-0.266-32.822-2.258-48.939-8.807l114.49-114.443
				c7.805-7.801,7.808-20.453,0.006-28.258c-7.802-7.806-20.453-7.808-28.259-0.006l-114.548,114.5
				c-6.562-16.009-8.553-35.862-8.806-48.92l104.708-80.571c8.747-6.73,10.38-19.275,3.651-28.021
				c-6.729-8.746-19.276-10.38-28.021-3.651L277.146,90.604c-4.597,3.537-7.43,8.897-7.763,14.687
				c-0.357,6.192-2.363,54.506,18.888,89.707l-31.541,31.528L37.895,5.933c-3.742-3.771-8.832-5.898-14.144-5.909
				c-0.014,0-0.027,0-0.041,0c-5.298,0-10.38,2.104-14.128,5.851L6.607,8.849c-3.306,3.306-5.348,7.666-5.772,12.322
				c-0.55,6.057-0.809,12.312-0.77,18.585c0.408,66.349,33.366,144.1,97.959,231.093c47.213,63.585,93.666,107.89,95.621,109.744
				c4.276,4.059,10.132,6.02,15.988,5.363l39.43-4.434c10.967-1.234,18.857-11.123,17.624-22.09
				c-1.234-10.966-11.13-18.86-22.09-17.623l-29.957,3.369c-29.975-30.117-153.64-160.44-172.263-277.983l435.394,438.895
				c3.906,3.938,9.045,5.91,14.186,5.91c5.086,0,10.176-1.93,14.071-5.796C513.865,498.432,513.916,485.781,506.144,477.947z"/>
		</g>
	</g>
</g>
<g>
</g>
<g>
</g>
<g>
</g>
<g>
</g>
<g>
</g>
<g>
</g>
<g>
</g>
<g>
</g>
<g>
</g>
<g>
</g>
<g>
</g>
<g>
</g>
<g>
</g>
<g>
</g>
<g>
</g>
</svg>
